<?xml version="1.0" standalone="no"?>
<!DOCTYPE svg PUBLIC "-//W3C//DTD SVG 20010904//EN"
 "http://www.w3.org/TR/2001/REC-SVG-20010904/DTD/svg10.dtd">
<svg version="1.0" xmlns="http://www.w3.org/2000/svg"
 width="70" height="980.000000pt" viewBox="0 0 980.000000 980.000000"
 preserveAspectRatio="xMidYMid meet">

<g transform="translate(0.000000,980.000000) scale(0.100000,-0.100000)"
fill="#000000" stroke="none">
<path d="M4560 9789 c-1035 -75 -1998 -463 -2800 -1128 -150 -123 -501 -475
-622 -621 -881 -1068 -1270 -2403 -1098 -3765 119 -934 501 -1801 1124 -2545
98 -117 370 -393 496 -504 1328 -1166 3158 -1531 4825 -962 895 305 1700 879
2281 1627 540 695 884 1519 993 2384 179 1408 -248 2798 -1185 3865 -112 128
-386 398 -509 501 -763 642 -1665 1026 -2665 1134 -174 19 -664 27 -840 14z
m515 -1670 c149 -34 273 -65 278 -69 4 -4 -42 -222 -103 -485 -60 -263 -109
-480 -107 -481 10 -10 410 -95 416 -88 5 5 57 221 116 479 59 259 108 471 110
473 4 4 570 -130 578 -138 7 -6 -191 -907 -210 -955 -2 -6 59 -29 139 -54 548
-163 881 -385 1019 -677 58 -121 73 -196 72 -354 -1 -343 -147 -671 -378 -847
-158 -120 -378 -201 -597 -220 -38 -3 -68 -9 -68 -12 0 -4 21 -17 48 -30 84
-41 226 -128 311 -191 204 -151 342 -343 397 -555 29 -109 26 -366 -5 -505
-34 -156 -67 -254 -122 -366 -247 -501 -783 -639 -1748 -448 -68 14 -125 23
-126 22 -1 -2 -52 -226 -114 -498 -62 -272 -116 -498 -120 -502 -6 -7 -567
125 -578 136 -4 4 44 229 107 501 63 272 111 497 107 501 -6 6 -410 105 -413
101 -1 -1 -52 -225 -114 -497 -62 -272 -115 -498 -119 -502 -3 -4 -136 24
-296 61 -213 50 -289 72 -288 82 1 8 52 234 113 502 62 269 110 490 108 492
-2 3 -244 61 -538 130 -294 69 -535 127 -536 128 0 1 62 145 139 320 111 253
143 316 156 312 68 -21 341 -77 403 -82 140 -11 205 35 249 176 17 56 494
2124 565 2448 13 62 24 144 24 182 0 162 -54 197 -457 292 -101 24 -183 48
-184 54 0 5 26 126 58 267 44 197 62 258 73 258 8 0 260 -58 560 -129 300 -70
546 -127 548 -126 3 2 222 954 222 963 0 2 8 1 18 -2 9 -2 139 -33 287 -67z"/>
<path d="M5010 6532 c0 -8 -268 -1179 -275 -1203 -4 -12 41 -26 262 -78 330
-77 418 -91 559 -91 192 0 320 46 425 152 101 102 174 290 186 480 17 261
-107 432 -397 551 -105 43 -167 60 -489 137 -270 64 -271 64 -271 52z"/>
<path d="M4605 4757 c-101 -433 -313 -1373 -309 -1376 9 -9 595 -142 690 -156
128 -19 308 -19 399 0 107 23 209 77 282 151 167 170 252 533 182 779 -43 152
-167 280 -364 376 -135 65 -234 96 -567 174 -156 36 -289 68 -295 70 -7 2 -15
-6 -18 -18z"/>
</g>
</svg>
